#!OML:ASF F:\VICON\USERDATA\INSTALL\rory3\rory3.ASF
:FULLY-SPECIFIED
:DEGREES
955
root 4.1649 15.9277 1.99109 23.9034 -4.20948 -2.55652
lowerback 9.78691 -0.774171 1.65233
upperback 9.20415 -0.921072 -0.89274
thorax 4.08548 -0.349528 -1.79913
lowerneck -18.6399 -0.516971 -2.35585
upperneck 38.1504 0.688452 -1.49501
head 17.0384 -0.303716 -0.123933
rclavicle 8.34896e-015 5.96354e-015
rhumerus -56.397 73.1286 -57.8792
rradius 56.6641
rwrist -16.8326
rhand -9.40792 -41.6218
rfingers 7.12502
rthumb 16.5537 -70.9357
lclavicle 8.34896e-015 5.96354e-015
lhumerus -38.4775 -78.7633 33.0971
lradius 58.9294
lwrist 62.7004
lhand -26.3401 -26.5336
lfingers 7.12502
lthumb 0.217237 3.44608
rfemur -76.4703 -1.41394 19.5286
rtibia 37.416
rfoot 36.0408 -0.990964
rtoes -1.14817
lfemur -57.8848 -0.561333 -26.8267
ltibia 59.1137
lfoot -23.484 6.9585
ltoes 9.31205
956
root 4.17622 15.9362 1.99741 24.0035 -4.02734 -2.56248
lowerback 9.52066 -0.862458 1.90531
upperback 9.20369 -1.02563 -0.913565
thorax 4.22346 -0.385227 -1.95998
lowerneck -18.6064 -0.495913 -2.32271
upperneck 38.0829 0.70673 -1.50101
head 16.9933 -0.291538 -0.128289
rclavicle 6.36111e-015 3.18055e-015
rhumerus -56.5706 73.2258 -58.04
rradius 56.7223
rwrist -16.8475
rhand -9.93467 -41.6308
rfingers 7.12502
rthumb 16.0466 -70.9863
lclavicle 6.36111e-015 3.18055e-015
lhumerus -38.2022 -78.5469 32.8433
lradius 58.8803
lwrist 62.636
lhand -26.1527 -26.9699
lfingers 7.12502
lthumb 0.398274 3.00943
rfemur -76.5142 -1.78353 19.8104
rtibia 37.3558
rfoot 36.0436 -0.554207
rtoes -1.49279
lfemur -57.9017 -0.738825 -26.8083
ltibia 59.0643
lfoot -23.4638 6.92672
ltoes 9.53684
957
root 4.17607 15.9402 1.99604 23.9749 -3.97491 -2.59967
lowerback 9.54572 -0.878754 1.95055
upperback 9.22815 -1.04432 -0.903348
thorax 4.23474 -0.392049 -1.97355
lowerneck -18.6646 -0.486235 -2.26082
upperneck 38.1001 0.726135 -1.56471
head 17.0179 -0.284309 -0.164443
rclavicle 1.94809e-014 -1.19271e-015
rhumerus -56.3286 73.2435 -57.8197
rradius 56.7099
rwrist -16.6745
rhand -9.58859 -41.635
rfingers 7.12502
rthumb 16.3798 -70.9634
lclavicle 1.94809e-014 -1.19271e-015
lhumerus -37.9358 -78.4628 32.5678
lradius 58.9158
lwrist 62.7857
lhand -26.2686 -27.3902
lfingers 7.12502
lthumb 0.286292 2.58936
rfemur -76.4333 -1.80501 19.8585
rtibia 37.2986
rfoot 36.0364 -0.865735
rtoes -0.790594
lfemur -57.8628 -0.721558 -26.7719
ltibia 59.0502
lfoot -23.4751 6.91844
ltoes 9.34758
958
root 4.1639 15.935 1.989 23.874 -4.08873 -2.6619
lowerback 9.81571 -0.809095 1.76235
upperback 9.2485 -0.960631 -0.861842
thorax 4.11491 -0.363629 -1.82632
lowerneck -18.7256 -0.492029 -2.22985
upperneck 38.1456 0.738319 -1.63604
head 17.0588 -0.285748 -0.200211
rclavicle 1.63003e-014 -4.77083e-015
rhumerus -55.7891 73.1391 -57.3335
rradius 56.6393
rwrist -16.5027
rhand -9.04192 -41.5762
rfingers 7.12502
rthumb 16.9061 -70.8603
lclavicle 1.63003e-014 -4.77083e-015
lhumerus -37.7081 -78.4722 32.3339
lradius 58.9579
lwrist 62.8988
lhand -26.2697 -27.2869
lfingers 7.12502
lthumb 0.285273 2.69262
rfemur -76.3018 -1.43179 19.6274
rtibia 37.2297
rfoot 36.0909 -1.48899
rtoes -0.0515527
lfemur -57.8293 -0.495085 -26.7278
ltibia 59.0852
lfoot -23.5167 6.86092
ltoes 9.34075
959
root 4.15893 15.9337 1.98808 23.8373 -4.15214 -2.72631
lowerback 9.90004 -0.769305 1.71094
upperback 9.2575 -0.911061 -0.83812
thorax 4.08138 -0.343043 -1.7749
lowerneck -18.7474 -0.482355 -2.18157
upperneck 38.1773 0.771277 -1.72223
head 17.0825 -0.278125 -0.241503
rclavicle -8.74653e-015 5.96354e-015
rhumerus -55.4097 72.9845 -56.9693
rradius 56.6083
rwrist -16.3228
rhand -9.02466 -41.4707
rfingers 7.12502
rthumb 16.9227 -70.7534
lclavicle -8.74653e-015 5.96354e-015
lhumerus -37.6877 -78.497 32.3712
lradius 58.8998
lwrist 62.7659
lhand -26.6976 -27.5762
lfingers 7.12502
lthumb -0.128056 2.40348
rfemur -76.2221 -1.26456 19.5892
rtibia 37.1504
rfoot 36.1331 -1.62026
rtoes -0.101711
lfemur -57.8111 -0.349447 -26.6906
ltibia 59.1238
lfoot -23.5708 6.80093
ltoes 9.39846
960
root 4.16134 15.9387 1.9908 23.7948 -4.03027 -2.89532
lowerback 9.89422 -0.801014 1.94813
upperback 9.28275 -0.939672 -0.789778
thorax 4.10898 -0.345599 -1.85611
lowerneck -18.7236 -0.475671 -2.17217
upperneck 38.1521 0.796834 -1.7721
head 17.0635 -0.273032 -0.260199
rclavicle -6.36111e-015 -1.19271e-015
rhumerus -55.2731 72.9226 -56.8405
rradius 56.5926
rwrist -16.1519
rhand -9.51839 -41.3579
rfingers 7.12502
rthumb 16.4474 -70.6806
lclavicle -6.36111e-015 -1.19271e-015
lhumerus -37.784 -78.4716 32.5172
lradius 58.8305
lwrist 62.4845
lhand -27.2232 -27.8553
lfingers 7.12502
lthumb -0.635614 2.12345
rfemur -76.0862 -1.34358 19.8681
rtibia 37.082
rfoot 36.1229 -1.48521
rtoes -0.366569
lfemur -57.7515 -0.342151 -26.4986
ltibia 59.1611
lfoot -23.5879 6.78204
ltoes 9.1172
961
root 4.1637 15.9421 1.99145 23.7798 -3.91079 -2.9771
lowerback 9.86302 -0.844906 2.09855
upperback 9.31273 -0.98951 -0.762387
thorax 4.15494 -0.362263 -1.90953
lowerneck -18.6652 -0.474619 -2.21492
upperneck 38.0366 0.793076 -1.73114
head 16.986 -0.27316 -0.233428
rclavicle 4.77083e-015 -7.15625e-015
rhumerus -55.1127 72.9409 -56.7423
rradius 56.579
rwrist -16.1933
rhand -9.84983 -41.1562
rfingers 7.12502
rthumb 16.1283 -70.5051
lclavicle 4.77083e-015 -7.15625e-015
lhumerus -37.8314 -78.5367 32.5384
lradius 58.9095
lwrist 62.5975
lhand -27.4499 -27.73
lfingers 7.12502
lthumb -0.854575 2.24803
rfemur -76.0039 -1.44939 20.04
rtibia 37.038
rfoot 36.1063 -1.39901
rtoes -0.492006
lfemur -57.7381 -0.382894 -26.3948
ltibia 59.1802
lfoot -23.5532 6.76545
ltoes 9.0464
962
root 4.16328 15.9405 1.99216 23.8154 -3.91785 -2.93865
lowerback 9.79083 -0.85402 2.04966
upperback 9.3358 -1.00551 -0.783476
thorax 4.21862 -0.371142 -1.90435
lowerneck -18.7143 -0.459686 -2.19287
upperneck 37.9948 0.797985 -1.70763
head 16.9754 -0.26458 -0.225632
rclavicle -2.78299e-015 1.70955e-014
rhumerus -54.955 72.9781 -56.6724
rradius 56.5778
rwrist -16.3547
rhand -9.53067 -40.8868
rfingers 7.12502
rthumb 16.4356 -70.2106
lclavicle -2.78299e-015 1.70955e-014
lhumerus -37.7325 -78.7825 32.4085
lradius 59.0176
lwrist 63.0193
lhand -27.8256 -27.9558
lfingers 7.12502
lthumb -1.21752 2.02043
rfemur -76.0448 -1.46702 20.0136
rtibia 37.0426
rfoot 36.0648 -1.30524
rtoes -1.02095
lfemur -57.7777 -0.387392 -26.446
ltibia 59.1773
lfoot -23.5265 6.74677
ltoes 9.16381
963
root 4.1621 15.9385 1.99259 23.853 -3.93662 -2.88726
lowerback 9.75921 -0.851937 1.97582
upperback 9.32325 -1.00709 -0.802845
thorax 4.22278 -0.375312 -1.88333
lowerneck -18.8036 -0.452992 -2.17877
upperneck 38.0861 0.800764 -1.6899
head 17.0469 -0.260751 -0.220998
rclavicle 1.55052e-014 -7.95139e-015
rhumerus -54.9308 73.008 -56.661
rradius 56.6275
rwrist -16.4699
rhand -9.03389 -40.6837
rfingers 7.12502
rthumb 16.9138 -69.9672
lclavicle 1.55052e-014 -7.95139e-015
lhumerus -37.434 -78.8883 32.1338
lradius 58.9945
lwrist 63.173
lhand -27.732 -27.9488
lfingers 7.12502
lthumb -1.12706 2.028
rfemur -76.1214 -1.48505 19.9839
rtibia 37.0952
rfoot 36.0378 -0.895729
rtoes -1.91816
lfemur -57.8204 -0.391638 -26.4997
ltibia 59.1562
lfoot -23.5297 6.67768
ltoes 9.23937
964
root 4.16492 15.9368 1.99175 23.8858 -3.95306 -2.58101
lowerback 9.77616 -0.869758 1.73956
upperback 9.27177 -1.04124 -0.880943
thorax 4.15784 -0.403367 -1.82925
lowerneck -18.7768 -0.465607 -2.22766
upperneck 38.1323 0.785331 -1.65124
head 17.0648 -0.268946 -0.198327
rclavicle 8.74653e-015 -1.19271e-014
rhumerus -55.0738 73.021 -56.7552
rradius 56.6878
rwrist -16.3997
rhand -8.59137 -40.4194
rfingers 7.12502
rthumb 17.3398 -69.6659
lclavicle 8.74653e-015 -1.19271e-014
lhumerus -37.185 -78.9181 31.8989
lradius 58.9678
lwrist 63.0849
lhand -27.3502 -27.4209
lfingers 7.12502
lthumb -0.758293 2.55753
rfemur -76.2474 -1.67591 19.7253
rtibia 37.1619
rfoot 36.013 -0.452591
rtoes -2.34499
lfemur -57.8328 -0.533694 -26.8248
ltibia 59.1008
lfoot -23.5525 6.67223
ltoes 9.15193
965
root 4.16795 15.9357 1.99236 23.8751 -3.96325 -2.33331
lowerback 9.81927 -0.883507 1.56732
upperback 9.24711 -1.06679 -0.944707
thorax 4.1076 -0.423728 -1.79656
lowerneck -18.6655 -0.496109 -2.32318
upperneck 38.0384 0.740061 -1.57675
head 16.9853 -0.288336 -0.15532
rclavicle -1.74931e-014 -2.38542e-015
rhumerus -55.1414 72.991 -56.8007
rradius 56.706
rwrist -16.2608
rhand -8.19437 -40.0534
rfingers 7.12502
rthumb 17.7218 -69.2658
lclavicle -1.74931e-014 -2.38542e-015
lhumerus -37.2856 -79.0636 32.0118
lradius 58.9648
lwrist 63.0187
lhand -27.4408 -27.3861
lfingers 7.12502
lthumb -0.845789 2.59195
rfemur -76.2939 -1.81014 19.4761
rtibia 37.1902
rfoot 35.9195 -0.425342
rtoes -2.20099
lfemur -57.7802 -0.651809 -27.0921
ltibia 59.0609
lfoot -23.5253 6.72412
ltoes 9.07184
